<svg width="48" height="48" viewBox="0 0 48 48" fill="none" xmlns="http://www.w3.org/2000/svg">
<rect width="48" height="48" rx="10" fill="#FFFEFF"/>
<path d="M27.8212 34.5299C27.8212 34.5299 28.6087 36.7349 29.3961 36.8136H19.9462C18.0562 36.8136 16.3237 35.7111 15.7725 33.6637L10.26 17.2837C10.26 17.2837 9.7875 15.315 9 15H18.6862C20.5762 15.0787 21.9149 15.7875 22.6237 18.3075L27.8212 34.5299Z" fill="url(#paint0_linear_164_4)"/>
<path d="M21.7576 34.5299C21.7576 34.5299 20.9701 36.7349 20.1826 36.8136H29.6325C31.5225 36.8136 33.255 35.7111 33.8063 33.6637L39.24 17.2837C39.24 17.2837 39.7125 15.315 40.5 15H30.8925C29.0025 15 27.7425 15.7087 27.0338 18.2287C27.0338 18.2287 21.7576 34.5299 21.7576 34.5299Z" fill="#EF5145"/>
<defs>
<linearGradient id="paint0_linear_164_4" x1="19.1981" y1="13.1819" x2="19.1981" y2="38.7787" gradientUnits="userSpaceOnUse">
<stop stop-color="#F2746A"/>
<stop offset="0.33" stop-color="#F2746A"/>
<stop offset="0.76" stop-color="#C74A40"/>
<stop offset="1" stop-color="#C2453B"/>
</linearGradient>
</defs>
</svg>
