<svg width="48" height="48" viewBox="0 0 48 48" fill="none" xmlns="http://www.w3.org/2000/svg">
<rect width="48" height="48" rx="10" fill="#30B0F0"/>
<path d="M36 24.0011C36 21.6014 35.2801 19.3216 33.9602 17.3418C32.6403 15.362 30.7805 13.8021 28.5607 12.9022C26.4009 12.0023 24.0011 11.7623 21.6614 12.2422C19.3216 12.7222 17.2218 13.8621 15.5419 15.5419C13.8621 17.2218 12.7222 19.3816 12.2422 21.6614C11.7623 23.9411 12.0023 26.4009 12.9022 28.6207C13.8021 30.8405 15.362 32.7003 17.3418 34.0202C19.3216 35.2801 21.6014 36 24.0011 36C27.1808 36 30.2405 34.7401 32.4603 32.4603C34.7401 30.2405 36 27.1808 36 24.0011ZM18.9016 22.2613L16.3219 21.3614C16.8618 19.7415 17.9417 18.3617 19.3216 17.3418C20.7014 16.3219 22.3813 15.8419 24.1211 15.8419C25.861 15.8419 27.5408 16.3819 28.9207 17.4018C30.3005 18.4217 31.3804 19.8015 31.9204 21.4214L29.3406 22.3213C28.9807 21.2414 28.2607 20.3415 27.3608 19.6815C26.4609 19.0216 25.321 18.6616 24.1811 18.7216C23.0412 18.6616 21.9013 18.9616 20.9414 19.6215C19.9815 20.2215 19.2616 21.1814 18.9016 22.2613ZM16.2019 26.4009L18.8416 25.561C19.2016 26.6409 19.8615 27.6008 20.8214 28.2607C21.7213 28.9207 22.8612 29.2806 24.0011 29.2806C25.141 29.2806 26.2809 28.9207 27.1808 28.2607C28.1407 27.6008 28.8007 26.6409 29.1606 25.561L31.8004 26.4609C31.2604 28.0807 30.1805 29.5206 28.8007 30.5405C27.3608 31.5604 25.681 32.1004 23.9411 32.1004C22.2013 32.1004 20.5215 31.5004 19.1416 30.4805C17.7617 29.5206 16.7418 28.0807 16.2019 26.4009Z" fill="white"/>
</svg>
