<svg width="48" height="48" viewBox="0 0 48 48" fill="none" xmlns="http://www.w3.org/2000/svg">
<rect width="48" height="48" rx="10" fill="#FFED00"/>
<path d="M24.9001 27.4794L16.3497 36L12.9831 32.6335L21.5037 24.0831L19.6864 22.2956V18.7801L18.4947 17.5288V20.5974L17.452 21.6699L13.0725 17.3798L12 18.4226C12.0189 16.5 12.7887 14.661 14.145 13.2983C16.2901 11.2426 18.6139 12.1662 19.3587 12.9706L23.7084 17.3203L22.6656 18.4226L24.9001 20.657L27.1941 18.363L26.0917 17.2905L30.4116 12.911C31.1498 12.2706 32.1102 11.946 33.0856 12.0073C34.0609 12.0687 34.973 12.5109 35.6253 13.2387C36.9853 14.6015 37.7647 16.438 37.8001 18.363L36.7276 17.2905L32.4077 21.6997L31.3352 20.6272V17.5288L30.1137 18.7801V22.2956L28.2964 24.0831L36.817 32.6335L33.4802 36L24.9001 27.4794Z" fill="black"/>
</svg>
